<svg width="217" height="120" viewBox="0 0 217 120" fill="none" xmlns="http://www.w3.org/2000/svg">
<path d="M89.1152 66.1596C89.0536 65.5694 89.5164 65.0558 90.1098 65.0558H127.89C128.484 65.0558 128.946 65.5694 128.885 66.1596L123.46 118.16C123.407 118.669 122.977 119.056 122.465 119.056H95.5349C95.0228 119.056 94.5934 118.669 94.5403 118.16L89.1152 66.1596Z" fill="#E1E1E1"/>
<path d="M91.8526 59.325C91.1896 59.9445 91.6279 61.0558 92.5353 61.0558H125.465C126.372 61.0558 126.81 59.9445 126.147 59.3251L122.936 56.3251C122.751 56.152 122.507 56.0558 122.253 56.0558H95.7465C95.4931 56.0558 95.2491 56.152 95.0639 56.3251L91.8526 59.325Z" fill="white"/>
<path d="M87.2065 65.8824C87.0988 66.4947 87.5698 67.0558 88.1914 67.0558H129.738C130.383 67.0558 130.859 66.4549 130.712 65.8273L130.008 62.8273C129.902 62.3753 129.498 62.0558 129.034 62.0558H88.7194C88.234 62.0558 87.8186 62.4044 87.7345 62.8825L87.2065 65.8824Z" fill="white"/>
<rect x="89" y="60.0558" width="40" height="3" rx="1" fill="white"/>
<path d="M88.2895 32.8179C88.2895 32.8179 71.0735 47.909 73.4766 77.7832C73.4766 77.7832 75.5497 81.6294 80.8866 77.7832C80.8866 77.7832 76.4391 39.9158 106.072 32.8179H88.2895Z" fill="black"/>
<path d="M127.994 32.8179C127.994 32.8179 145.21 47.909 142.807 77.7832C142.807 77.7832 140.734 81.6294 135.397 77.7832C135.397 77.7832 139.844 39.9158 110.211 32.8179H127.994Z" fill="black"/>
<path d="M121.029 7.10504H93.1961C86.481 7.10504 81.0373 12.5404 81.0373 19.2452V23.8076C81.0373 30.5125 86.481 35.9478 93.1961 35.9478H121.029C127.744 35.9478 133.188 30.5125 133.188 23.8076V19.2452C133.188 12.5404 127.744 7.10504 121.029 7.10504Z" fill="black"/>
<path d="M89.5733 29.4086L48.8862 28.2697C47.2985 28.225 45.7907 27.5641 44.683 26.4274C43.5754 25.2907 42.9551 23.7677 42.9539 22.1817V20.6418C42.9541 19.0726 43.5606 17.5639 44.6469 16.4299C45.7332 15.2959 47.2157 14.6239 48.7858 14.5538L89.4729 12.7346C90.2966 12.6978 91.1192 12.8281 91.8911 13.1174C92.663 13.4068 93.3683 13.8493 93.9642 14.4182C94.5601 14.9871 95.0345 15.6707 95.3586 16.4277C95.6827 17.1847 95.8498 17.9993 95.85 18.8226V23.342C95.8465 24.1547 95.6803 24.9585 95.3611 25.7061C95.0419 26.4537 94.5762 27.13 93.9913 27.6952C93.4065 28.2605 92.7144 28.7033 91.9557 28.9975C91.1969 29.2917 90.3869 29.4315 89.5733 29.4086Z" fill="black"/>
<path d="M126.416 29.4086L167.103 28.2697C168.691 28.225 170.198 27.5641 171.306 26.4274C172.414 25.2907 173.034 23.7677 173.035 22.1817V20.6418C173.035 19.0726 172.429 17.5639 171.342 16.4299C170.256 15.2959 168.773 14.6239 167.203 14.5538L126.516 12.7346C125.693 12.6978 124.87 12.8281 124.098 13.1174C123.326 13.4068 122.621 13.8493 122.025 14.4182C121.429 14.9871 120.955 15.6707 120.631 16.4277C120.306 17.1847 120.139 17.9993 120.139 18.8226V23.342C120.143 24.1547 120.309 24.9585 120.628 25.7061C120.947 26.4537 121.413 27.13 121.998 27.6952C122.583 28.2605 123.275 28.7033 124.033 28.9975C124.792 29.2917 125.602 29.4315 126.416 29.4086Z" fill="black"/>
<path opacity="0.2" d="M89.5733 29.4086L48.8862 28.2697C47.2985 28.225 45.7907 27.5641 44.683 26.4274C43.5754 25.2907 42.9551 23.7677 42.9539 22.1817V20.6418C42.9541 19.0726 43.5606 17.5639 44.6469 16.4299C45.7332 15.2959 47.2157 14.6239 48.7858 14.5538L89.4729 12.7346C90.2966 12.6978 91.1192 12.8281 91.8911 13.1174C92.663 13.4068 93.3683 13.8493 93.9642 14.4182C94.5601 14.9871 95.0345 15.6707 95.3586 16.4277C95.6827 17.1847 95.8498 17.9993 95.85 18.8226V23.342C95.8465 24.1547 95.6803 24.9585 95.3611 25.7061C95.0419 26.4537 94.5762 27.13 93.9913 27.6952C93.4065 28.2605 92.7144 28.7033 91.9557 28.9975C91.1969 29.2917 90.3869 29.4315 89.5733 29.4086Z" fill="#0D262B"/>
<path opacity="0.2" d="M126.416 29.4086L167.103 28.2697C168.691 28.225 170.198 27.5641 171.306 26.4274C172.414 25.2907 173.034 23.7677 173.035 22.1817V20.6418C173.035 19.0726 172.429 17.5639 171.342 16.4299C170.256 15.2959 168.773 14.6239 167.203 14.5538L126.516 12.7346C125.693 12.6978 124.87 12.8281 124.098 13.1174C123.326 13.4068 122.621 13.8493 122.025 14.4182C121.429 14.9871 120.955 15.6707 120.631 16.4277C120.306 17.1847 120.139 17.9993 120.139 18.8226V23.342C120.143 24.1547 120.309 24.9585 120.628 25.7061C120.947 26.4537 121.413 27.13 121.998 27.6952C122.583 28.2605 123.275 28.7033 124.033 28.9975C124.792 29.2917 125.602 29.4315 126.416 29.4086Z" fill="#0D262B"/>
<path d="M39.6112 11.8393H37.122C33.4733 11.8393 30.5154 14.7927 30.5154 18.4358V22.6974C30.5154 26.3406 33.4733 29.2939 37.122 29.2939H39.6112C43.2599 29.2939 46.2178 26.3406 46.2178 22.6974V18.4358C46.2178 14.7927 43.2599 11.8393 39.6112 11.8393Z" fill="black"/>
<path d="M179.168 11.8393H176.679C173.03 11.8393 170.073 14.7927 170.073 18.4358V22.6974C170.073 26.3406 173.03 29.2939 176.679 29.2939H179.168C182.817 29.2939 185.775 26.3406 185.775 22.6974V18.4358C185.775 14.7927 182.817 11.8393 179.168 11.8393Z" fill="black"/>
<path d="M41.2609 7.9931H35.7661C34.6648 7.9931 33.7719 8.88456 33.7719 9.98424V10.7363C33.7719 11.836 34.6648 12.7274 35.7661 12.7274H41.2609C42.3622 12.7274 43.2551 11.836 43.2551 10.7363V9.98424C43.2551 8.88456 42.3622 7.9931 41.2609 7.9931Z" fill="black"/>
<path d="M38.779 0H37.6528C36.0008 0 34.6616 1.33719 34.6616 2.9867V7.66372C34.6616 9.31323 36.0008 10.6504 37.6528 10.6504H38.779C40.4311 10.6504 41.7704 9.31323 41.7704 7.66372V2.9867C41.7704 1.33719 40.4311 0 38.779 0Z" fill="black"/>
<path d="M19.8486 7.99317C30.8107 7.99317 39.6972 6.80028 39.6972 5.32877C39.6972 3.85726 30.8107 2.66437 19.8486 2.66437C8.88655 2.66437 0 3.85726 0 5.32877C0 6.80028 8.88655 7.99317 19.8486 7.99317Z" fill="black"/>
<path d="M56.5905 7.99317C67.5526 7.99317 76.4391 6.80028 76.4391 5.32877C76.4391 3.85726 67.5526 2.66437 56.5905 2.66437C45.6284 2.66437 36.7419 3.85726 36.7419 5.32877C36.7419 6.80028 45.6284 7.99317 56.5905 7.99317Z" fill="black"/>
<path d="M181.119 7.9931H175.625C174.523 7.9931 173.63 8.88456 173.63 9.98424V10.7363C173.63 11.836 174.523 12.7274 175.625 12.7274H181.119C182.221 12.7274 183.114 11.836 183.114 10.7363V9.98424C183.114 8.88456 182.221 7.9931 181.119 7.9931Z" fill="black"/>
<path d="M178.638 0H177.511C175.859 0 174.52 1.33719 174.52 2.9867V7.66372C174.52 9.31323 175.859 10.6504 177.511 10.6504H178.638C180.29 10.6504 181.629 9.31323 181.629 7.66372V2.9867C181.629 1.33719 180.29 0 178.638 0Z" fill="black"/>
<path d="M159.7 7.99317C170.662 7.99317 179.549 6.80028 179.549 5.32877C179.549 3.85726 170.662 2.66437 159.7 2.66437C148.738 2.66437 139.852 3.85726 139.852 5.32877C139.852 6.80028 148.738 7.99317 159.7 7.99317Z" fill="black"/>
<path d="M196.442 7.99317C207.404 7.99317 216.29 6.80028 216.29 5.32877C216.29 3.85726 207.404 2.66437 196.442 2.66437C185.48 2.66437 176.593 3.85726 176.593 5.32877C176.593 6.80028 185.48 7.99317 196.442 7.99317Z" fill="black"/>
<path opacity="0.2" d="M19.8486 7.99317C30.8107 7.99317 39.6972 6.80028 39.6972 5.32877C39.6972 3.85726 30.8107 2.66437 19.8486 2.66437C8.88655 2.66437 0 3.85726 0 5.32877C0 6.80028 8.88655 7.99317 19.8486 7.99317Z" fill="#0D262B"/>
<path opacity="0.2" d="M56.5905 7.99317C67.5526 7.99317 76.4391 6.80028 76.4391 5.32877C76.4391 3.85726 67.5526 2.66437 56.5905 2.66437C45.6284 2.66437 36.7419 3.85726 36.7419 5.32877C36.7419 6.80028 45.6284 7.99317 56.5905 7.99317Z" fill="#0D262B"/>
<path opacity="0.2" d="M159.7 7.99317C170.662 7.99317 179.549 6.80028 179.549 5.32877C179.549 3.85726 170.662 2.66437 159.7 2.66437C148.738 2.66437 139.852 3.85726 139.852 5.32877C139.852 6.80028 148.738 7.99317 159.7 7.99317Z" fill="#0D262B"/>
<path opacity="0.2" d="M196.442 7.99317C207.404 7.99317 216.29 6.80028 216.29 5.32877C216.29 3.85726 207.404 2.66437 196.442 2.66437C185.48 2.66437 176.593 3.85726 176.593 5.32877C176.593 6.80028 185.48 7.99317 196.442 7.99317Z" fill="#0D262B"/>
<path d="M116.007 30.4758H100.283C98.0806 30.4758 96.2949 32.2588 96.2949 34.4581V35.9622C96.2949 38.1615 98.0806 39.9445 100.283 39.9445H116.007C118.21 39.9445 119.996 38.1615 119.996 35.9622V34.4581C119.996 32.2588 118.21 30.4758 116.007 30.4758Z" fill="black"/>
<path opacity="0.2" d="M116.007 30.4758H100.283C98.0806 30.4758 96.2949 32.2588 96.2949 34.4581V35.9622C96.2949 38.1615 98.0806 39.9445 100.283 39.9445H116.007C118.21 39.9445 119.996 38.1615 119.996 35.9622V34.4581C119.996 32.2588 118.21 30.4758 116.007 30.4758Z" fill="#0D262B"/>
<path d="M116.889 27.3136C115.434 23.1629 113.956 19.0209 112.48 14.8771C112.266 14.2795 111.859 13.9884 111.203 14.0004C109.727 14.0278 108.249 14.0226 106.773 14.0021C106.121 13.9935 105.738 14.2966 105.522 14.9062C104.059 19.0226 102.583 23.1321 101.129 27.2519C100.751 28.3221 101.219 28.9728 102.341 28.9865C103.651 29.0036 104.959 28.9899 106.27 28.9899C106.663 28.9899 107.066 29.0088 107.276 28.5601C107.471 28.1458 107.207 27.8581 107.004 27.555C106.235 26.4061 105.769 25.1458 105.647 23.752C105.594 23.1304 105.855 22.8376 106.449 22.8359C107.284 22.8325 108.121 22.8359 108.956 22.8359C108.956 22.8342 108.956 22.8325 108.956 22.8325C109.764 22.8325 110.572 22.8205 111.379 22.8359C112.247 22.8513 112.465 23.115 112.338 24.0088C112.15 25.3256 111.678 26.5293 110.945 27.6321C110.42 28.4249 110.671 28.9677 111.581 28.9814C112.974 29.0053 114.368 29.0088 115.76 28.9762C116.767 28.9523 117.229 28.281 116.889 27.3136ZM109.965 18.9164C109.566 19.4027 109.248 19.8993 109.106 20.5363C108.974 21.1304 108.606 21.1441 108.196 20.7434C107.483 20.0431 107.399 18.7486 108.059 17.8565C108.429 17.3565 108.773 16.8822 108.897 16.2298C108.997 15.7075 109.394 15.6579 109.764 16.0414C110.171 16.4592 110.395 16.9678 110.386 17.6185C110.422 18.0757 110.274 18.5414 109.965 18.9164Z" fill="white"/>
</svg>
